<?xml version="1.0" encoding="iso-8859-1"?>
<!-- Uploaded to: SVG Repo, www.svgrepo.com, Generator: SVG Repo Mixer Tools -->
<svg fill="#000000" height="800px" width="800px" version="1.1" id="Layer_1" xmlns="http://www.w3.org/2000/svg" xmlns:xlink="http://www.w3.org/1999/xlink" 
	 viewBox="0 0 512.386 512.386" xml:space="preserve">
<g>
	<g>
		<g>
			<path d="M451.495,362.936c-7.292-5.642-14.806-26.557-19.372-56.216c-4.005-26.017-5.333-52.709-5.27-71.422l0.001-64.248
				C426.854,76.738,350.388,0,256.188,0S85.521,76.738,85.521,171.051v64c0.007,4.833-0.165,12.874-0.692,23.057
				c-0.861,16.643-2.42,33.221-4.828,48.546c-4.665,29.684-12.24,50.624-19.593,56.317c-16.487,12.692-11.992,39.768,9.627,44.618
				c0.405,0.091,0.809,0.17,1.213,0.237c0.036,0.006,0.071,0.009,0.106,0.015c26.208,5.487,52.572,9.796,79.016,12.926
				c7.314,51.782,51.806,91.619,105.605,91.619c53.786,0,98.271-39.819,105.6-91.583c26.526-3.139,52.928-7.461,79.126-12.978
				c0.404-0.067,0.808-0.146,1.214-0.237C463.532,402.739,468.027,375.663,451.495,362.936z M255.974,469.719
				c-28.656,0-52.915-18.839-61.07-44.806c40.715,2.782,81.516,2.788,122.13,0.029C308.871,450.894,284.62,469.719,255.974,469.719z
				 M341.17,380.122c-0.778-0.009-1.565,0.021-2.359,0.099c-55.093,5.37-110.581,5.37-165.674,0
				c-0.796-0.078-1.586-0.108-2.367-0.098c-21.631-2.166-43.194-5.155-64.635-8.976c7.311-15.079,12.346-34.523,16.015-57.869
				c4.571-29.089,6.067-57.997,6.037-78.223l0-64.004c0-70.783,57.397-128.384,128-128.384s128,57.601,128,128.384v64
				c-0.071,20.849,1.355,49.511,5.765,78.161c3.598,23.374,8.586,42.842,15.872,57.932
				C384.377,374.965,362.808,377.955,341.17,380.122z"/>
			<path d="M486.138,150.278c-7.408-9.162-20.84-10.584-30.002-3.176c-9.162,7.408-10.584,20.84-3.176,30.002
				c10.672,13.199,16.568,29.561,16.568,46.896c0,17.325-5.91,33.71-16.589,46.918c-7.408,9.162-5.986,22.594,3.176,30.002
				c9.162,7.408,22.594,5.986,30.002-3.176c16.76-20.729,26.077-46.559,26.077-73.744
				C512.194,196.809,502.894,171.001,486.138,150.278z"/>
			<path d="M59.427,270.918c-10.672-13.199-16.568-29.561-16.568-46.896c0-17.325,5.91-33.71,16.589-46.918
				c7.408-9.162,5.986-22.594-3.176-30.002c-9.162-7.408-22.594-5.986-30.002,3.176c-16.76,20.729-26.077,46.559-26.077,73.744
				c0,27.191,9.301,52.999,26.056,73.722c7.408,9.162,20.84,10.584,30.002,3.176C65.412,293.512,66.834,280.08,59.427,270.918z"/>
			<path d="M255.972,64.378c-58.843,0-106.667,47.823-106.667,106.667c0,11.782,9.551,21.333,21.333,21.333
				c11.782,0,21.333-9.551,21.333-21.333c0-35.279,28.721-64,64-64c11.782,0,21.333-9.551,21.333-21.333
				S267.754,64.378,255.972,64.378z"/>
		</g>
	</g>
</g>
</svg>